<svg width="77" height="68" viewBox="0 0 77 68" fill="none" xmlns="http://www.w3.org/2000/svg">
<path d="M5.15803 67.25C4.88699 67.25 4.62476 67.2272 4.37241 67.184L4.28804 67.6768C3.69396 67.5751 3.14511 67.371 2.6544 67.0866L2.90506 66.654C2.44708 66.3887 2.04457 66.045 1.71103 65.6451L1.32704 65.9653C0.953683 65.5176 0.65904 65.0073 0.458 64.4601L0.927326 64.2877C0.747728 63.7988 0.651381 63.2784 0.650569 62.7491L0.15057 62.7499C0.1497 62.1828 0.2473 61.6054 0.456266 61.04L0.925255 61.2134C1.01402 60.9732 1.12538 60.7347 1.26091 60.5L1.75123 59.6507L1.31822 59.4007L2.29886 57.7022L2.73188 57.9522L3.71252 56.2537L3.27951 56.0037L4.26016 54.3051L4.69317 54.5551L5.67382 52.8566L5.2408 52.6066L6.22145 50.9081L6.65446 51.1581L7.63511 49.4596L7.2021 49.2096L8.18274 47.511L8.61576 47.761L9.5964 46.0625L9.16339 45.8125L10.144 44.114L10.577 44.364L11.5577 42.6654L11.1247 42.4154L12.1053 40.7169L12.5383 40.9669L13.519 39.2684L13.086 39.0184L14.0666 37.3199L14.4996 37.5699L15.4803 35.8713L15.0473 35.6213L16.0279 33.9228L16.4609 34.1728L17.4416 32.4743L17.0086 32.2243L17.9892 30.5257L18.4222 30.7757L19.4029 29.0772L18.9699 28.8272L19.9505 27.1287L20.3835 27.3787L21.3642 25.6802L20.9311 25.4302L21.9118 23.7316L22.3448 23.9816L23.3254 22.2831L22.8924 22.0331L23.8731 20.3346L24.3061 20.5846L25.2867 18.886L24.8537 18.636L25.8344 16.9375L26.2674 17.1875L27.248 15.489L26.815 15.239L27.7957 13.5405L28.2287 13.7905L29.2093 12.0919L28.7763 11.8419L29.757 10.1434L30.19 10.3934L31.1706 8.69487L30.7376 8.44487L31.7183 6.74634L32.1513 6.99634L33.1319 5.29781L32.6989 5.04781L33.6795 3.34928L34.1126 3.59928L34.6029 2.75001C34.7384 2.51528 34.8893 2.29958 35.0528 2.10264L34.6682 1.78316C35.0533 1.31952 35.5046 0.946293 35.9962 0.663479L36.2455 1.09687C36.7043 0.832927 37.2032 0.656165 37.7163 0.567287L37.631 0.0746222C38.2054 -0.0248671 38.7946 -0.024868 39.369 0.0746198L39.2837 0.567284C39.7968 0.65616 40.2957 0.832921 40.7545 1.09687L41.0038 0.663472C41.4954 0.946284 41.9467 1.31951 42.3318 1.78315L41.9471 2.10263C42.1107 2.29958 42.2616 2.51527 42.3971 2.75L42.8874 3.59927L43.3204 3.34927L44.3011 5.04779L43.8681 5.29779L44.8487 6.99632L45.2817 6.74632L46.2624 8.44485L45.8294 8.69485L46.81 10.3934L47.243 10.1434L48.2237 11.8419L47.7907 12.0919L48.7713 13.7904L49.2043 13.5404L50.185 15.239L49.752 15.489L50.7326 17.1875L51.1656 16.9375L52.1463 18.636L51.7133 18.886L52.6939 20.5846L53.1269 20.3346L54.1076 22.0331L53.6745 22.2831L54.6552 23.9816L55.0882 23.7316L56.0688 25.4301L55.6358 25.6801L56.6165 27.3787L57.0495 27.1287L58.0301 28.8272L57.5971 29.0772L58.5778 30.7757L59.0108 30.5257L59.9914 32.2243L59.5584 32.4743L60.5391 34.1728L60.9721 33.9228L61.9527 35.6213L61.5197 35.8713L62.5004 37.5698L62.9334 37.3198L63.914 39.0184L63.481 39.2684L64.4617 40.9669L64.8947 40.7169L65.8753 42.4154L65.4423 42.6654L66.4229 44.364L66.856 44.114L67.8366 45.8125L67.4036 46.0625L68.3842 47.761L68.8172 47.511L69.7979 49.2095L69.3649 49.4595L70.3455 51.1581L70.7785 50.9081L71.7592 52.6066L71.3262 52.8566L72.3068 54.5551L72.7398 54.3051L73.7205 56.0037L73.2875 56.2537L74.2681 57.9522L74.7011 57.7022L75.6818 59.4007L75.2488 59.6507L75.7391 60.5C75.8746 60.7347 75.986 60.9732 76.0747 61.2134L76.5437 61.04C76.7527 61.6054 76.8503 62.1828 76.8494 62.7499L76.3494 62.7491C76.3486 63.2784 76.2523 63.7988 76.0727 64.2876L76.542 64.4601C76.341 65.0073 76.0463 65.5176 75.673 65.9653L75.289 65.6451C74.9554 66.045 74.5529 66.3886 74.0949 66.654L74.3456 67.0866C73.8549 67.3709 73.3061 67.5751 72.712 67.6768L72.6276 67.184C72.3752 67.2272 72.113 67.25 71.842 67.25H70.8613V67.75H68.9V67.25H66.9387V67.75H64.9774V67.25H63.0162V67.75H61.0549V67.25H59.0936V67.75H57.1323V67.25H55.171V67.75H53.2097V67.25H51.2484V67.75H49.2871V67.25H47.3258V67.75H45.3645V67.25H43.4032V67.75H41.4419V67.25H39.4807V67.75H37.5194V67.25H35.5581V67.75H33.5968V67.25H31.6355V67.75H29.6742V67.25H27.7129V67.75H25.7516V67.25H23.7903V67.75H21.829V67.25H19.8677V67.75H17.9064V67.25H15.9451V67.75H13.9839V67.25H12.0226V67.75H10.0613V67.25H8.09998V67.75H6.13868V67.25H5.15803Z" stroke="black" stroke-linejoin="round" stroke-dasharray="2 2"/>
</svg>
